<svg width="284" height="75" viewBox="0 0 284 75" fill="none" xmlns="http://www.w3.org/2000/svg">
<path d="M40.2344 29.4688C40.2344 30.8906 40.1562 32.1562 40 33.2656C39.8438 34.375 39.6328 35.3281 39.3672 36.125C39.1172 36.9062 38.7656 37.5781 38.3125 38.1406C37.875 38.7031 37.4062 39.1562 36.9062 39.5C36.4219 39.8438 35.8281 40.1172 35.125 40.3203C34.4375 40.5078 33.75 40.6328 33.0625 40.6953C32.3906 40.7578 31.6016 40.7891 30.6953 40.7891H21.3906V53H16.6562V18.0781H29.3125C30.7656 18.0781 31.9922 18.1406 32.9922 18.2656C34.0078 18.375 34.9453 18.5859 35.8047 18.8984C36.6641 19.2109 37.3516 19.6328 37.8672 20.1641C38.3828 20.6953 38.8281 21.3906 39.2031 22.25C39.5781 23.1094 39.8359 24.125 39.9766 25.2969C40.1328 26.4531 40.2188 27.8438 40.2344 29.4688ZM35.5 29.2109C35.4844 28.0859 35.4531 27.1719 35.4062 26.4688C35.3594 25.7656 35.2656 25.1016 35.125 24.4766C35 23.8516 34.8281 23.375 34.6094 23.0469C34.4062 22.7188 34.1172 22.4375 33.7422 22.2031C33.3828 21.9531 32.9531 21.7891 32.4531 21.7109C31.9688 21.6328 31.3594 21.5938 30.625 21.5938H21.3906V37.25H29.6641C30.8828 37.25 31.875 37.1484 32.6406 36.9453C33.4062 36.7422 34 36.4062 34.4219 35.9375C34.8594 35.4531 35.1484 34.8906 35.2891 34.25C35.4453 33.6094 35.5234 32.7812 35.5234 31.7656C35.5234 31.5156 35.5156 31.1094 35.5 30.5469C35.5 29.9844 35.5 29.5391 35.5 29.2109ZM64.4688 53H60.8125L60.0625 49.3203C59.5938 50.9297 58.7422 52.0078 57.5078 52.5547C56.2891 53.0859 54.5 53.3516 52.1406 53.3516C50.5781 53.3516 49.2969 53.2031 48.2969 52.9062C47.2969 52.5938 46.5 52.0781 45.9062 51.3594C45.3125 50.6406 44.8984 49.7656 44.6641 48.7344C44.4453 47.6875 44.3359 46.3438 44.3359 44.7031C44.3359 43.9688 44.4609 43.3125 44.7109 42.7344C44.9766 42.1562 45.3281 41.6641 45.7656 41.2578C46.2188 40.8516 46.8125 40.5 47.5469 40.2031C48.2969 39.9062 49.0703 39.6719 49.8672 39.5C50.6641 39.3281 51.625 39.1953 52.75 39.1016C53.8906 38.9922 55 38.9219 56.0781 38.8906C57.1562 38.8594 58.4141 38.8438 59.8516 38.8438V31.8828C59.8516 31.0859 59.4766 30.5391 58.7266 30.2422C57.9766 29.9297 56.6406 29.7734 54.7188 29.7734C53.375 29.7734 52.3672 29.8047 51.6953 29.8672C51.0234 29.9297 50.5078 30.1172 50.1484 30.4297C49.8047 30.7266 49.6016 31.0234 49.5391 31.3203C49.4922 31.6172 49.4609 32.1719 49.4453 32.9844C49.4297 33.2812 49.4219 33.5156 49.4219 33.6875L45.8359 33.5469C45.8047 33.2969 45.7891 32.9297 45.7891 32.4453C45.7891 31.3984 45.9375 30.5156 46.2344 29.7969C46.5469 29.0625 46.9453 28.4922 47.4297 28.0859C47.9141 27.6641 48.5781 27.3359 49.4219 27.1016C50.2656 26.8672 51.1016 26.7188 51.9297 26.6562C52.7578 26.5938 53.7891 26.5625 55.0234 26.5625C56.8984 26.5625 58.4219 26.7109 59.5938 27.0078C60.7656 27.2891 61.7266 27.8047 62.4766 28.5547C63.2266 29.3047 63.7422 30.2656 64.0234 31.4375C64.3203 32.5938 64.4688 34.1094 64.4688 35.9844V53ZM59.8516 45.6406V41.6328C56.7734 41.6328 54.4062 41.75 52.75 41.9844C51.0938 42.2188 49.9844 42.5469 49.4219 42.9688C48.875 43.375 48.6016 43.9531 48.6016 44.7031C48.6016 44.7344 48.6016 44.7812 48.6016 44.8438C48.6016 47.2188 48.7969 48.6953 49.1875 49.2734C49.5781 49.8516 50.7734 50.1406 52.7734 50.1406C54.4766 50.1406 55.8594 49.9375 56.9219 49.5312C57.9844 49.125 58.7188 48.6094 59.125 47.9844C59.5469 47.3438 59.7891 46.5625 59.8516 45.6406ZM81.7422 49.7422L81.6484 53.0234C80.3359 53.2422 79.1484 53.3516 78.0859 53.3516C76.9453 53.3516 76 53.2266 75.25 52.9766C74.5156 52.7266 73.9609 52.3281 73.5859 51.7812C73.2109 51.2344 72.9531 50.6328 72.8125 49.9766C72.6719 49.3047 72.6016 48.4531 72.6016 47.4219V29.9141H69.1094V27.2891H72.6016V19.9766L77.1953 19.6016V27.2891H81.9297V29.9141H77.1953V45.8516C77.1953 47.5391 77.2734 48.6328 77.4297 49.1328C77.6016 49.6328 78.0547 49.8828 78.7891 49.8828C79.5078 49.8828 80.4922 49.8359 81.7422 49.7422ZM108.297 53H103.68V37.3906C103.68 36.8281 103.688 36.1172 103.703 35.2578C103.734 34.3984 103.75 33.8281 103.75 33.5469C103.75 32.7656 103.688 32.1641 103.562 31.7422C103.453 31.3203 103.188 30.9453 102.766 30.6172C102.344 30.2891 101.75 30.0703 100.984 29.9609C100.219 29.8516 99.1719 29.7969 97.8438 29.7969C97.2188 29.7969 96.625 29.8359 96.0625 29.9141C95.5156 29.9766 94.9922 30.0938 94.4922 30.2656C93.9922 30.4219 93.5859 30.6484 93.2734 30.9453C92.9609 31.2422 92.7891 31.5938 92.7578 32C92.5391 34.8125 92.4297 37.3438 92.4297 39.5938V53H87.7891V18.1719L92.4297 17.7969V29.2344C93.5547 27.4531 95.8828 26.5625 99.4141 26.5625C100.336 26.5781 101.164 26.6406 101.898 26.75C102.648 26.8438 103.312 26.9609 103.891 27.1016C104.469 27.2422 104.977 27.4375 105.414 27.6875C105.852 27.9375 106.227 28.1953 106.539 28.4609C106.852 28.7266 107.117 29.0625 107.336 29.4688C107.555 29.8594 107.727 30.2422 107.852 30.6172C107.977 30.9922 108.07 31.4531 108.133 32C108.211 32.5469 108.258 33.0625 108.273 33.5469C108.305 34.0156 108.32 34.5938 108.32 35.2812C108.32 35.5781 108.312 36.0625 108.297 36.7344C108.297 37.3906 108.297 37.8984 108.297 38.2578V53ZM146.711 27.2891L140.008 53H135.742L130.141 33.4531L124.82 53H120.086L113.336 27.2891H117.766L122.383 47.5391L128.008 27.2891H132.156L137.43 47.5391L142.094 27.2891H146.711ZM170.406 53H166.75L166 49.3203C165.531 50.9297 164.68 52.0078 163.445 52.5547C162.227 53.0859 160.438 53.3516 158.078 53.3516C156.516 53.3516 155.234 53.2031 154.234 52.9062C153.234 52.5938 152.438 52.0781 151.844 51.3594C151.25 50.6406 150.836 49.7656 150.602 48.7344C150.383 47.6875 150.273 46.3438 150.273 44.7031C150.273 43.9688 150.398 43.3125 150.648 42.7344C150.914 42.1562 151.266 41.6641 151.703 41.2578C152.156 40.8516 152.75 40.5 153.484 40.2031C154.234 39.9062 155.008 39.6719 155.805 39.5C156.602 39.3281 157.562 39.1953 158.688 39.1016C159.828 38.9922 160.938 38.9219 162.016 38.8906C163.094 38.8594 164.352 38.8438 165.789 38.8438V31.8828C165.789 31.0859 165.414 30.5391 164.664 30.2422C163.914 29.9297 162.578 29.7734 160.656 29.7734C159.312 29.7734 158.305 29.8047 157.633 29.8672C156.961 29.9297 156.445 30.1172 156.086 30.4297C155.742 30.7266 155.539 31.0234 155.477 31.3203C155.43 31.6172 155.398 32.1719 155.383 32.9844C155.367 33.2812 155.359 33.5156 155.359 33.6875L151.773 33.5469C151.742 33.2969 151.727 32.9297 151.727 32.4453C151.727 31.3984 151.875 30.5156 152.172 29.7969C152.484 29.0625 152.883 28.4922 153.367 28.0859C153.852 27.6641 154.516 27.3359 155.359 27.1016C156.203 26.8672 157.039 26.7188 157.867 26.6562C158.695 26.5938 159.727 26.5625 160.961 26.5625C162.836 26.5625 164.359 26.7109 165.531 27.0078C166.703 27.2891 167.664 27.8047 168.414 28.5547C169.164 29.3047 169.68 30.2656 169.961 31.4375C170.258 32.5938 170.406 34.1094 170.406 35.9844V53ZM165.789 45.6406V41.6328C162.711 41.6328 160.344 41.75 158.688 41.9844C157.031 42.2188 155.922 42.5469 155.359 42.9688C154.812 43.375 154.539 43.9531 154.539 44.7031C154.539 44.7344 154.539 44.7812 154.539 44.8438C154.539 47.2188 154.734 48.6953 155.125 49.2734C155.516 49.8516 156.711 50.1406 158.711 50.1406C160.414 50.1406 161.797 49.9375 162.859 49.5312C163.922 49.125 164.656 48.6094 165.062 47.9844C165.484 47.3438 165.727 46.5625 165.789 45.6406ZM196.891 27.2891L188.781 51.7578C188.578 52.3516 188.359 53.0625 188.125 53.8906C187.906 54.7344 187.719 55.4141 187.562 55.9297C187.422 56.4453 187.234 57.0078 187 57.6172C186.781 58.2422 186.539 58.7344 186.273 59.0938C186.008 59.4688 185.68 59.8203 185.289 60.1484C184.898 60.4922 184.43 60.7344 183.883 60.875C183.336 61.0312 182.703 61.1094 181.984 61.1094C180.125 61.1094 178.438 60.9297 176.922 60.5703L177.625 57.0078C177.922 57.0391 178.32 57.0938 178.82 57.1719C179.32 57.2656 179.75 57.3359 180.109 57.3828C180.484 57.4297 180.828 57.4531 181.141 57.4531C182.141 57.4531 182.898 57.1094 183.414 56.4219C183.93 55.7344 184.195 54.4609 184.211 52.6016L174.578 27.2891H179.242L183.977 40.3438C184.836 42.7188 185.633 44.9609 186.367 47.0703C186.883 45.1797 187.641 42.5703 188.641 39.2422L192.18 27.2891H196.891ZM219.977 45.875C219.977 47.375 219.812 48.6094 219.484 49.5781C219.156 50.5312 218.609 51.2891 217.844 51.8516C217.094 52.4141 216.172 52.8047 215.078 53.0234C214 53.2422 212.633 53.3516 210.977 53.3516C210.008 53.3516 209.227 53.3438 208.633 53.3281C208.055 53.3125 207.383 53.2734 206.617 53.2109C205.852 53.1484 205.242 53.0547 204.789 52.9297C204.336 52.7891 203.844 52.6094 203.312 52.3906C202.797 52.1562 202.391 51.8672 202.094 51.5234C201.797 51.1641 201.516 50.7422 201.25 50.2578C200.984 49.7734 200.797 49.2031 200.688 48.5469C200.578 47.875 200.523 47.1172 200.523 46.2734L204.156 45.3359C204.297 47.1172 204.461 48.2422 204.648 48.7109C204.93 49.3516 205.516 49.7578 206.406 49.9297C207.078 50.0703 208.492 50.1406 210.648 50.1406C211.945 50.1406 212.906 50.0859 213.531 49.9766C214.172 49.8516 214.602 49.625 214.82 49.2969C215.445 48.7812 215.758 47.0234 215.758 44.0234C215.758 43.5703 215.664 43.1875 215.477 42.875C215.289 42.5469 215.062 42.3047 214.797 42.1484C214.531 41.9766 214.156 41.8359 213.672 41.7266C213.203 41.6016 212.773 41.5234 212.383 41.4922C212.008 41.4453 211.508 41.3906 210.883 41.3281C210.258 41.2656 209.758 41.2109 209.383 41.1641C208.242 41.0391 207.312 40.9219 206.594 40.8125C205.875 40.6875 205.148 40.5078 204.414 40.2734C203.68 40.0391 203.102 39.75 202.68 39.4062C202.273 39.0625 201.898 38.6172 201.555 38.0703C201.211 37.5234 200.969 36.8672 200.828 36.1016C200.688 35.3359 200.617 34.4219 200.617 33.3594C200.617 32.2344 200.734 31.2812 200.969 30.5C201.203 29.7188 201.547 29.0703 202 28.5547C202.453 28.0391 203.07 27.6406 203.852 27.3594C204.648 27.0625 205.539 26.8594 206.523 26.75C207.508 26.625 208.711 26.5625 210.133 26.5625C211.023 26.5625 211.75 26.5781 212.312 26.6094C212.891 26.625 213.516 26.6797 214.188 26.7734C214.875 26.8516 215.43 26.9688 215.852 27.125C216.273 27.2812 216.695 27.5 217.117 27.7812C217.555 28.0625 217.891 28.4141 218.125 28.8359C218.359 29.2422 218.547 29.7422 218.688 30.3359C218.844 30.9297 218.922 31.6094 218.922 32.375L215.781 33.3359C215.719 32.7266 215.656 32.25 215.594 31.9062C215.547 31.5469 215.43 31.2188 215.242 30.9219C215.055 30.625 214.859 30.4141 214.656 30.2891C214.453 30.1641 214.102 30.0547 213.602 29.9609C213.117 29.8672 212.625 29.8125 212.125 29.7969C211.625 29.7812 210.906 29.7734 209.969 29.7734C207.969 29.7734 206.609 29.9766 205.891 30.3828C205.188 30.7734 204.836 31.4219 204.836 32.3281V34.7188C204.836 35.75 205.141 36.4062 205.75 36.6875C206.375 36.9531 208.031 37.2578 210.719 37.6016C211 37.6484 211.211 37.6797 211.352 37.6953C212.43 37.8203 213.281 37.9375 213.906 38.0469C214.547 38.1562 215.219 38.3047 215.922 38.4922C216.625 38.6641 217.156 38.875 217.516 39.125C217.891 39.3594 218.258 39.6641 218.617 40.0391C218.992 40.4141 219.258 40.875 219.414 41.4219C219.586 41.9688 219.719 42.6016 219.812 43.3203C219.922 44.0391 219.977 44.8906 219.977 45.875ZM231.344 50.2578C231.344 51.3672 231.023 52.2266 230.383 52.8359C229.758 53.4297 229 53.7266 228.109 53.7266C227.219 53.7266 226.438 53.4219 225.766 52.8125C225.094 52.1875 224.758 51.3359 224.758 50.2578C224.758 49.1641 225.07 48.3203 225.695 47.7266C226.336 47.1172 227.094 46.8125 227.969 46.8125C228.875 46.8125 229.664 47.125 230.336 47.75C231.008 48.3594 231.344 49.1953 231.344 50.2578ZM242.289 53H237.672V18.1719L242.289 17.7969V53ZM270.484 53H265.398L256.445 39.5938L254.289 42.0078V53H249.648V18.1719L254.289 17.7969V34.6719C254.289 35.0625 254.281 35.6797 254.266 36.5234C254.266 37.3672 254.266 37.9766 254.266 38.3516C254.766 37.8203 255.477 37.0391 256.398 36.0078C257.336 34.9766 257.961 34.2969 258.273 33.9688L264.391 27.2891H269.641L259.961 37.5781L270.484 53Z" fill="black"/>
<path d="M102.881 72C106.858 72 107.852 64 107.852 60" stroke="#58A8D4" stroke-width="6"/>
<path d="M102.881 75L3.00013 75C1.34327 75 0.000128203 73.6569 0.000128203 72V72C0.000128203 70.3431 1.34327 69 3.00013 69L102.881 69V75Z" fill="#58A8D5"/>
<path d="M115.263 3C109.453 3 108 11 108 15" stroke="#58A8D4" stroke-width="6"/>
<path d="M115.263 0H221.207C222.864 0 224.207 1.34315 224.207 3V3C224.207 4.65685 222.864 6 221.207 6H115.263V0Z" fill="#58A8D5"/>
</svg>
